<svg width="13" height="13" viewBox="0 0 13 13" fill="none" xmlns="http://www.w3.org/2000/svg">
<path d="M9.59131 6.65871C9.54105 6.60836 9.48135 6.56842 9.41564 6.54117C9.34993 6.51392 9.27949 6.49989 9.20835 6.49989C9.13721 6.49989 9.06677 6.51392 9.00106 6.54117C8.93535 6.56842 8.87565 6.60836 8.82539 6.65871L7.96198 7.52212C7.56168 7.40296 6.81473 7.13212 6.34131 6.65871C5.86789 6.18529 5.59706 5.43833 5.47789 5.03804L6.34131 4.17462C6.39165 4.12436 6.4316 4.06467 6.45885 3.99896C6.4861 3.93324 6.50013 3.8628 6.50013 3.79166C6.50013 3.72052 6.4861 3.65008 6.45885 3.58437C6.4316 3.51866 6.39165 3.45897 6.34131 3.40871L4.17464 1.24204C4.12438 1.19169 4.06469 1.15175 3.99898 1.1245C3.93326 1.09725 3.86282 1.08322 3.79168 1.08322C3.72055 1.08322 3.6501 1.09725 3.58439 1.1245C3.51868 1.15175 3.45899 1.19169 3.40873 1.24204L1.93973 2.71104C1.73389 2.91687 1.61798 3.19962 1.62231 3.48833C1.63477 4.25966 1.83898 6.93875 3.95039 9.05016C6.06181 11.1616 8.74089 11.3652 9.51277 11.3782H9.52793C9.81393 11.3782 10.0842 11.2656 10.289 11.0608L11.758 9.59183C11.8083 9.54157 11.8483 9.48188 11.8755 9.41616C11.9028 9.35045 11.9168 9.28001 11.9168 9.20887C11.9168 9.13773 11.9028 9.06729 11.8755 9.00158C11.8483 8.93587 11.8083 8.87617 11.758 8.82591L9.59131 6.65871ZM9.52252 10.2944C8.84652 10.283 6.5336 10.1015 4.71631 8.28371C2.89306 6.46046 2.71648 4.13941 2.70564 3.47696L3.79168 2.39091L5.19243 3.79166L4.49206 4.49204C4.42839 4.55566 4.38158 4.63414 4.35586 4.72039C4.33014 4.80664 4.32631 4.89794 4.34473 4.98604C4.35773 5.04833 4.67568 6.52545 5.57485 7.42462C6.47402 8.32379 7.95114 8.64175 8.01343 8.65475C8.10148 8.67368 8.19287 8.67016 8.2792 8.64451C8.36553 8.61886 8.44402 8.5719 8.50743 8.50795L9.20835 7.80758L10.6091 9.20833L9.52252 10.2944Z" fill="#090302"/>
</svg>
