<svg width="13" height="13" viewBox="0 0 13 13" fill="none" xmlns="http://www.w3.org/2000/svg">
<path d="M6.49954 3.99588C5.83526 3.99588 5.19819 4.25976 4.72847 4.72948C4.25876 5.1992 3.99487 5.83627 3.99487 6.50055C3.99487 7.16483 4.25876 7.8019 4.72847 8.27161C5.19819 8.74133 5.83526 9.00521 6.49954 9.00521C7.16382 9.00521 7.80089 8.74133 8.27061 8.27161C8.74032 7.8019 9.00421 7.16483 9.00421 6.50055C9.00421 5.83627 8.74032 5.1992 8.27061 4.72948C7.80089 4.25976 7.16382 3.99588 6.49954 3.99588ZM6.49954 8.12717C6.06799 8.12717 5.65411 7.95574 5.34896 7.65059C5.04381 7.34543 4.87237 6.93156 4.87237 6.50001C4.87237 6.06845 5.04381 5.65458 5.34896 5.34942C5.65411 5.04427 6.06799 4.87284 6.49954 4.87284C6.93109 4.87284 7.34497 5.04427 7.65012 5.34942C7.95527 5.65458 8.12671 6.06845 8.12671 6.50001C8.12671 6.93156 7.95527 7.34543 7.65012 7.65059C7.34497 7.95574 6.93109 8.12717 6.49954 8.12717Z" fill="#090302"/>
<path d="M9.1032 4.48772C9.42569 4.48772 9.68712 4.22629 9.68712 3.9038C9.68712 3.58131 9.42569 3.31989 9.1032 3.31989C8.78072 3.31989 8.51929 3.58131 8.51929 3.9038C8.51929 4.22629 8.78072 4.48772 9.1032 4.48772Z" fill="#090302"/>
<path d="M11.1219 3.31013C10.9965 2.98631 10.8049 2.69224 10.5593 2.44675C10.3137 2.20125 10.0196 2.00974 9.69573 1.88447C9.31674 1.7422 8.91637 1.66528 8.51164 1.65697C7.99002 1.63422 7.82481 1.62772 6.50206 1.62772C5.17931 1.62772 5.00977 1.62772 4.49248 1.65697C4.08806 1.66485 3.68797 1.74179 3.30948 1.88447C2.98553 2.00959 2.69131 2.20105 2.4457 2.44657C2.20009 2.69208 2.00852 2.98623 1.88327 3.31013C1.74097 3.68909 1.66423 4.0895 1.65631 4.49422C1.63302 5.0153 1.62598 5.18051 1.62598 6.5038C1.62598 7.82655 1.62598 7.99501 1.65631 8.51338C1.66443 8.91855 1.74081 9.3183 1.88327 9.69801C2.00887 10.0218 2.20063 10.3158 2.4463 10.5613C2.69196 10.8068 2.98614 10.9983 3.31002 11.1237C3.68779 11.2717 4.08805 11.3541 4.49356 11.3674C5.01518 11.3902 5.18039 11.3972 6.50314 11.3972C7.82589 11.3972 7.99544 11.3972 8.51273 11.3674C8.91741 11.3592 9.31777 11.2825 9.69681 11.1405C10.0206 11.0149 10.3146 10.8232 10.5602 10.5777C10.8058 10.3321 10.9975 10.038 11.123 9.71426C11.2655 9.33509 11.3419 8.93534 11.35 8.53017C11.3733 8.00909 11.3803 7.84388 11.3803 6.52059C11.3803 5.1973 11.3803 5.02938 11.35 4.51101C11.3437 4.10057 11.2665 3.69431 11.1219 3.31013ZM10.4622 8.4733C10.4587 8.78546 10.4017 9.09472 10.2937 9.38763C10.2124 9.59827 10.0879 9.78955 9.92814 9.94917C9.76843 10.1088 9.57708 10.2332 9.36639 10.3144C9.07672 10.4219 8.77076 10.4789 8.46181 10.4829C7.94723 10.5067 7.80206 10.5127 6.48256 10.5127C5.16198 10.5127 5.0271 10.5127 4.50277 10.4829C4.19398 10.4791 3.88815 10.4221 3.59873 10.3144C3.38731 10.2337 3.19519 10.1095 3.03479 9.94986C2.8744 9.79021 2.7493 9.59867 2.6676 9.38763C2.56113 9.09787 2.50419 8.79225 2.49914 8.48359C2.47585 7.96901 2.47043 7.82384 2.47043 6.50434C2.47043 5.1843 2.47043 5.04942 2.49914 4.52455C2.50264 4.21256 2.55962 3.90348 2.6676 3.61076C2.83281 3.18338 3.17135 2.84701 3.59873 2.68342C3.8883 2.57625 4.19403 2.51928 4.50277 2.51497C5.01789 2.49167 5.16252 2.48517 6.48256 2.48517C7.8026 2.48517 7.93802 2.48517 8.46181 2.51497C8.77078 2.51868 9.0768 2.57567 9.36639 2.68342C9.57706 2.76482 9.76839 2.88937 9.92809 3.04907C10.0878 3.20876 10.2123 3.40009 10.2937 3.61076C10.4002 3.90052 10.4571 4.20614 10.4622 4.5148C10.4855 5.02992 10.4914 5.17455 10.4914 6.49459C10.4914 7.81409 10.4914 7.95601 10.4681 8.47384H10.4622V8.4733Z" fill="#090302"/>
</svg>
