<svg width="13" height="13" viewBox="0 0 13 13" fill="none" xmlns="http://www.w3.org/2000/svg">
<path fill-rule="evenodd" clip-rule="evenodd" d="M10.3973 3.59877C9.88988 3.09047 9.2862 2.68744 8.6212 2.413C7.95619 2.13857 7.24308 1.9982 6.52317 2.00002C3.50443 2.00002 1.04698 4.4452 1.04576 7.45083C1.04576 8.41141 1.29773 9.34892 1.77665 10.1759L1 13L3.90343 12.2416C4.70656 12.6767 5.60632 12.9049 6.52073 12.9053H6.52317C9.5413 12.9053 11.9988 10.4601 12 7.45447C12.0021 6.73827 11.8615 6.02877 11.5864 5.36696C11.3113 4.70516 10.9071 4.10418 10.3973 3.59877ZM6.52317 11.9854H6.52134C5.70596 11.9855 4.90559 11.7671 4.20421 11.3533L4.03826 11.2549L2.31536 11.7048L2.77476 10.0332L2.66677 9.86201C2.21091 9.1397 1.96958 8.30381 1.97066 7.45083C1.97188 4.95282 4.01386 2.92053 6.525 2.92053C7.12305 2.91921 7.71542 3.03595 8.26783 3.26399C8.82024 3.49203 9.32172 3.82686 9.74324 4.24908C10.167 4.66928 10.5029 5.16892 10.7315 5.7191C10.9601 6.26928 11.0769 6.8591 11.0751 7.45447C11.0739 9.95248 9.03188 11.9854 6.52317 11.9854ZM9.02028 8.59175C8.88301 8.52314 8.21069 8.19404 8.08501 8.1485C7.95994 8.10296 7.86904 8.08049 7.77752 8.2165C7.68601 8.35251 7.42367 8.65915 7.34375 8.75023C7.26383 8.84131 7.1839 8.85224 7.04724 8.78423C6.91058 8.71622 6.46948 8.57232 5.94663 8.10842C5.5397 7.74714 5.26516 7.30146 5.18524 7.16484C5.10532 7.02822 5.1767 6.95475 5.24564 6.88674C5.30726 6.82602 5.3823 6.72765 5.45063 6.64811C5.51896 6.56857 5.54153 6.5121 5.58729 6.42102C5.63305 6.32994 5.61047 6.2504 5.5757 6.18239C5.54153 6.11378 5.2676 5.44343 5.15351 5.1708C5.04309 4.90667 4.93022 4.94189 4.84603 4.93824C4.75883 4.93469 4.67157 4.93307 4.5843 4.93339C4.5149 4.93515 4.44662 4.95116 4.38374 4.98041C4.32085 5.00967 4.26471 5.05154 4.21885 5.1034C4.09317 5.24002 3.73993 5.56912 3.73993 6.23947C3.73993 6.90981 4.23044 7.55769 4.29877 7.64877C4.3671 7.73985 5.26394 9.11515 6.63665 9.70535C6.96366 9.84561 7.21868 9.9294 7.41696 9.99255C7.74458 10.0964 8.04291 10.0812 8.27902 10.0466C8.54197 10.0077 9.08861 9.71749 9.2027 9.39932C9.31679 9.08115 9.31679 8.80852 9.28262 8.75144C9.24846 8.69437 9.15633 8.65976 9.02028 8.59175Z" fill="#090302"/>
</svg>
